<svg xmlns="http://www.w3.org/2000/svg" xmlns:xlink="http://www.w3.org/1999/xlink" width="500" zoomAndPan="magnify" viewBox="0 0 375 127.500001" height="170" preserveAspectRatio="xMidYMid meet" version="1.0"><defs><filter x="0%" y="0%" width="100%" height="100%" id="3847f4a4f6"><feColorMatrix values="0 0 0 0 1 0 0 0 0 1 0 0 0 0 1 0 0 0 1 0" color-interpolation-filters="sRGB"/></filter><g/><mask id="d120f4339e"><g filter="url(#3847f4a4f6)"><rect x="-37.5" width="450" fill="#000000" y="-12.75" height="153.000001" fill-opacity="0.8471"/></g></mask><clipPath id="9d2e97b1bc"><path d="M 0.390625 0.558594 L 149.804688 0.558594 L 149.804688 117.101562 L 0.390625 117.101562 Z M 0.390625 0.558594 " clip-rule="nonzero"/></clipPath><clipPath id="0c1625a573"><rect x="0" width="150" y="0" height="118"/></clipPath></defs><g mask="url(#d120f4339e)"><g transform="matrix(1, 0, 0, 1, 9, 6)"><g clip-path="url(#0c1625a573)"><g clip-path="url(#9d2e97b1bc)"><path fill="#eb7abf" d="M 0.417969 59.367188 C 0.78125 58.847656 1.167969 58.363281 1.511719 57.84375 C 2.171875 56.839844 2.800781 55.8125 3.460938 54.804688 C 4.292969 53.535156 5.125 52.265625 5.992188 51.019531 C 6.605469 50.140625 7.269531 49.300781 7.914062 48.441406 C 8.664062 47.445312 9.40625 46.445312 10.167969 45.457031 C 10.566406 44.933594 10.996094 44.433594 11.410156 43.917969 C 12.121094 43.039062 12.824219 42.160156 13.539062 41.28125 C 13.824219 40.933594 14.117188 40.589844 14.417969 40.253906 C 15.191406 39.402344 15.972656 38.554688 16.75 37.703125 C 17.226562 37.179688 17.664062 36.617188 18.183594 36.140625 C 18.894531 35.484375 19.648438 34.871094 20.410156 34.269531 C 21.167969 33.671875 21.929688 33.070312 22.734375 32.539062 C 24.160156 31.601562 25.597656 30.683594 27.070312 29.824219 C 28.402344 29.046875 29.789062 28.371094 31.140625 27.628906 C 32.585938 26.84375 34.0625 26.125 35.652344 25.699219 C 36.464844 25.484375 37.292969 25.339844 38.125 25.207031 C 38.59375 25.132812 39.078125 25.148438 39.558594 25.125 C 40.585938 25.066406 41.417969 25.554688 42.238281 26.082031 C 43.179688 26.691406 43.472656 27.6875 43.800781 28.65625 C 44.359375 30.332031 44.894531 32.011719 45.445312 33.691406 C 46.132812 35.800781 46.832031 37.90625 47.515625 40.015625 C 48.195312 42.105469 48.867188 44.195312 49.535156 46.285156 C 49.78125 47.054688 50.007812 47.824219 50.257812 48.589844 C 50.300781 48.722656 50.320312 48.957031 50.609375 48.714844 C 51.679688 47.816406 52.765625 46.9375 53.882812 46.09375 C 55.050781 45.207031 55.925781 44.058594 56.824219 42.925781 C 57.148438 42.515625 57.523438 42.144531 57.855469 41.738281 C 58.519531 40.917969 59.171875 40.085938 59.828125 39.257812 C 60.207031 38.78125 60.589844 38.304688 60.964844 37.824219 C 61.816406 36.75 62.671875 35.675781 63.515625 34.59375 C 64.15625 33.773438 64.777344 32.9375 65.425781 32.125 C 66.105469 31.277344 66.789062 30.433594 67.503906 29.617188 C 67.925781 29.128906 68.402344 28.691406 68.867188 28.242188 C 69.515625 27.609375 70.179688 26.984375 70.828125 26.347656 C 71.101562 26.078125 71.320312 25.75 71.613281 25.503906 C 72.582031 24.679688 73.535156 23.828125 74.566406 23.082031 C 76.316406 21.820312 78.109375 20.621094 79.898438 19.414062 C 80.578125 18.957031 81.308594 18.570312 81.992188 18.109375 C 82.855469 17.527344 83.683594 16.890625 84.542969 16.304688 C 86.128906 15.226562 87.769531 14.242188 89.496094 13.398438 C 90.113281 13.09375 90.703125 12.722656 91.335938 12.449219 C 92.808594 11.816406 94.292969 11.214844 95.78125 10.617188 C 96.867188 10.175781 97.96875 9.761719 99.058594 9.332031 C 100.152344 8.902344 101.238281 8.457031 102.335938 8.039062 C 104.238281 7.320312 106.140625 6.609375 108.050781 5.917969 C 109.199219 5.5 110.347656 5.085938 111.515625 4.730469 C 113.265625 4.195312 115.019531 3.679688 116.789062 3.222656 C 118.054688 2.894531 119.34375 2.652344 120.632812 2.410156 C 121.726562 2.207031 122.832031 2.054688 123.933594 1.894531 C 124.984375 1.738281 126.035156 1.589844 127.085938 1.453125 C 128.085938 1.324219 129.085938 1.203125 130.085938 1.085938 C 130.824219 1.003906 131.5625 0.929688 132.304688 0.867188 C 133.039062 0.808594 133.777344 0.761719 134.515625 0.722656 C 135.152344 0.6875 135.789062 0.65625 136.425781 0.648438 C 138.46875 0.617188 140.511719 0.558594 142.550781 0.585938 C 143.625 0.601562 144.699219 0.726562 145.761719 0.875 C 146.960938 1.046875 148.148438 1.308594 149.339844 1.523438 C 149.46875 1.546875 149.605469 1.523438 149.757812 1.523438 C 149.777344 4.738281 149.777344 7.949219 149.757812 11.179688 C 149.703125 11.175781 149.664062 11.128906 149.625 11.128906 C 148.644531 11.074219 147.664062 10.996094 146.683594 10.988281 C 145.375 10.976562 144.066406 11.019531 142.757812 11.054688 C 141.359375 11.09375 139.964844 11.152344 138.570312 11.199219 C 137.808594 11.226562 137.050781 11.242188 136.292969 11.273438 C 135.921875 11.289062 135.554688 11.3125 135.1875 11.347656 C 134.273438 11.4375 133.363281 11.542969 132.453125 11.636719 C 131.972656 11.6875 131.488281 11.722656 131.011719 11.792969 C 130.824219 11.820312 130.667969 11.941406 130.71875 12.191406 C 130.761719 12.386719 130.769531 12.585938 130.804688 12.78125 C 130.945312 13.625 131.097656 14.46875 131.234375 15.3125 C 131.339844 15.976562 131.421875 16.648438 131.53125 17.3125 C 131.667969 18.144531 131.828125 18.972656 131.96875 19.804688 C 132.054688 20.324219 132.113281 20.84375 132.199219 21.359375 C 132.335938 22.179688 132.492188 22.996094 132.625 23.816406 C 132.734375 24.484375 132.816406 25.15625 132.925781 25.820312 C 133.0625 26.652344 133.21875 27.480469 133.359375 28.3125 C 133.445312 28.816406 133.496094 29.328125 133.582031 29.832031 C 133.71875 30.628906 133.886719 31.417969 134.015625 32.214844 C 134.15625 33.054688 134.253906 33.898438 134.390625 34.734375 C 134.550781 35.71875 134.734375 36.695312 134.898438 37.675781 C 135.03125 38.476562 135.132812 39.285156 135.277344 40.085938 C 135.308594 40.253906 135.3125 40.496094 135.691406 40.386719 C 136.542969 40.132812 137.425781 39.964844 138.300781 39.785156 C 139.636719 39.503906 140.992188 39.28125 142.320312 38.964844 C 143.691406 38.640625 145.078125 38.488281 146.476562 38.398438 C 147.574219 38.328125 148.675781 38.339844 149.777344 38.316406 C 149.777344 41.945312 149.777344 45.570312 149.777344 49.21875 C 149.03125 49.261719 148.28125 49.265625 147.535156 49.3125 C 146.660156 49.367188 145.789062 49.449219 144.917969 49.53125 C 144.226562 49.59375 143.535156 49.664062 142.84375 49.75 C 141.953125 49.863281 141.066406 49.996094 140.175781 50.113281 C 139.398438 50.21875 138.617188 50.292969 137.84375 50.414062 C 137.070312 50.535156 136.300781 50.703125 135.53125 50.839844 C 134.664062 50.996094 133.796875 51.132812 132.929688 51.289062 C 132.183594 51.425781 131.4375 51.570312 130.695312 51.730469 C 129.722656 51.9375 128.746094 52.148438 127.78125 52.390625 C 126.433594 52.730469 125.085938 53.074219 123.753906 53.464844 C 122.332031 53.882812 120.914062 54.328125 119.515625 54.8125 C 118.082031 55.304688 116.675781 55.859375 115.253906 56.382812 C 113.195312 57.144531 111.199219 58.042969 109.257812 59.0625 C 107.738281 59.859375 106.230469 60.675781 104.753906 61.550781 C 102.839844 62.6875 100.941406 63.863281 99.074219 65.078125 C 98.109375 65.703125 97.214844 66.4375 96.296875 67.136719 C 95.402344 67.820312 94.511719 68.503906 93.640625 69.214844 C 93.011719 69.726562 92.402344 70.261719 91.8125 70.820312 C 90.722656 71.859375 89.628906 72.894531 88.589844 73.980469 C 87.75 74.855469 86.992188 75.808594 86.195312 76.722656 C 85.777344 77.199219 85.371094 77.6875 84.921875 78.132812 C 83.957031 79.097656 83.171875 80.203125 82.359375 81.289062 C 81.960938 81.820312 81.550781 82.347656 81.144531 82.875 C 80.5 83.707031 79.851562 84.539062 79.199219 85.367188 C 78.84375 85.820312 78.488281 86.273438 78.109375 86.707031 C 77.210938 87.746094 76.316406 88.785156 75.386719 89.792969 C 74.71875 90.519531 74 91.199219 73.296875 91.890625 C 72.683594 92.492188 72.082031 93.113281 71.433594 93.671875 C 70.476562 94.496094 69.503906 95.300781 68.5 96.058594 C 67.652344 96.695312 66.785156 97.3125 65.867188 97.839844 C 64.335938 98.714844 62.78125 99.578125 61.054688 100.011719 C 60.214844 100.226562 59.339844 100.289062 58.492188 100.472656 C 57.007812 100.792969 55.503906 100.875 53.992188 100.824219 C 53.320312 100.800781 52.675781 100.664062 52.105469 100.246094 C 51.847656 100.058594 51.492188 100.019531 51.203125 99.867188 C 51.054688 99.792969 50.894531 99.644531 50.847656 99.496094 C 50.125 97.242188 49.417969 94.984375 48.714844 92.722656 C 48.304688 91.402344 47.917969 90.074219 47.515625 88.75 C 47.160156 87.589844 46.863281 86.40625 46.410156 85.285156 C 46.222656 84.8125 46.152344 84.335938 46.003906 83.867188 C 45.410156 81.960938 44.828125 80.054688 44.242188 78.148438 C 44.121094 77.757812 44.003906 77.367188 43.875 76.980469 C 43.792969 76.738281 43.65625 76.636719 43.398438 76.789062 C 42.578125 77.277344 41.726562 77.726562 40.929688 78.25 C 39.769531 79.011719 38.632812 79.808594 37.519531 80.632812 C 36.835938 81.140625 36.203125 81.71875 35.566406 82.285156 C 34.464844 83.269531 33.339844 84.230469 32.300781 85.273438 C 31.039062 86.546875 29.820312 87.867188 28.648438 89.21875 C 27.65625 90.363281 26.71875 91.554688 25.820312 92.773438 C 24.535156 94.515625 23.273438 96.273438 22.066406 98.070312 C 21.3125 99.195312 20.65625 100.386719 19.988281 101.566406 C 19.292969 102.800781 18.59375 104.039062 17.972656 105.3125 C 17.0625 107.179688 16.230469 109.082031 15.5 111.03125 C 14.820312 112.835938 14.257812 114.675781 13.753906 116.535156 C 13.746094 116.570312 13.753906 116.609375 13.738281 116.636719 C 13.652344 116.792969 13.5625 116.945312 13.472656 117.101562 C 13.398438 116.96875 13.347656 116.820312 13.246094 116.710938 C 12.957031 116.398438 12.667969 116.085938 12.347656 115.808594 C 11.820312 115.355469 11.269531 114.925781 10.734375 114.484375 C 10.007812 113.882812 9.277344 113.277344 8.554688 112.667969 C 8.027344 112.226562 7.511719 111.773438 6.988281 111.324219 C 6.960938 111.300781 6.9375 111.269531 6.910156 111.246094 C 6.75 111.097656 6.492188 110.96875 6.453125 110.792969 C 6.414062 110.605469 6.570312 110.371094 6.660156 110.164062 C 7.140625 109.054688 7.617188 107.945312 8.113281 106.84375 C 8.738281 105.464844 9.359375 104.085938 10.023438 102.726562 C 10.828125 101.066406 11.65625 99.417969 12.515625 97.785156 C 13.339844 96.21875 14.1875 94.664062 15.082031 93.132812 C 16.03125 91.507812 17.042969 89.914062 18.035156 88.308594 C 18.347656 87.800781 18.695312 87.316406 19.011719 86.808594 C 19.164062 86.570312 19.167969 86.371094 19 86.070312 C 18.714844 85.554688 18.5625 84.957031 18.375 84.390625 C 17.191406 80.835938 16.015625 77.28125 14.832031 73.730469 C 13.597656 70.027344 12.355469 66.328125 11.117188 62.628906 C 10.886719 61.941406 10.640625 61.261719 10.402344 60.578125 C 10.394531 60.554688 10.390625 60.535156 10.382812 60.511719 C 10.347656 60.367188 10.308594 60.226562 10.273438 60.082031 C 10.140625 60.195312 9.980469 60.289062 9.875 60.425781 C 9.113281 61.414062 8.347656 62.402344 7.613281 63.410156 C 7.070312 64.15625 6.566406 64.925781 6.0625 65.699219 C 5.453125 66.628906 4.90625 67.601562 4.257812 68.5 C 3.058594 70.15625 1.976562 71.882812 1 73.675781 C 0.839844 73.96875 0.636719 74.238281 0.433594 74.519531 C 0.417969 71.210938 0.417969 67.898438 0.433594 64.570312 C 0.867188 65.066406 1.277344 65.582031 1.703125 66.082031 C 1.746094 66.128906 1.972656 66.113281 2.015625 66.054688 C 2.375 65.5625 2.703125 65.046875 3.054688 64.550781 C 3.636719 63.726562 4.230469 62.914062 4.816406 62.09375 C 5.371094 61.324219 5.921875 60.550781 6.472656 59.777344 C 6.578125 59.625 6.652344 59.460938 6.4375 59.328125 C 6.128906 59.132812 5.828125 58.917969 5.496094 58.769531 C 5.351562 58.707031 5.0625 58.71875 4.972656 58.816406 C 4.503906 59.328125 4.082031 59.882812 3.636719 60.417969 C 3.207031 60.925781 2.773438 61.425781 2.34375 61.929688 C 1.699219 62.683594 1.058594 63.433594 0.417969 64.1875 C 0.417969 62.585938 0.417969 60.984375 0.417969 59.367188 M 128.816406 18.199219 C 128.742188 17.703125 128.675781 17.207031 128.597656 16.714844 C 128.402344 15.5 128.199219 14.289062 128.015625 13.074219 C 127.914062 12.40625 127.8125 12.285156 127.355469 12.371094 C 126.96875 12.445312 126.585938 12.515625 126.199219 12.59375 C 125.007812 12.835938 123.8125 13.074219 122.621094 13.328125 C 121.175781 13.636719 119.734375 13.964844 118.289062 14.277344 C 117.019531 14.550781 115.742188 14.785156 114.488281 15.097656 C 113.175781 15.425781 111.878906 15.804688 110.585938 16.207031 C 108.65625 16.8125 106.730469 17.449219 104.808594 18.09375 C 103.632812 18.488281 102.480469 18.960938 101.292969 19.324219 C 99.15625 19.980469 97.140625 20.921875 95.101562 21.808594 C 93.609375 22.457031 92.152344 23.1875 90.703125 23.929688 C 89.523438 24.535156 88.367188 25.195312 87.21875 25.859375 C 85.425781 26.898438 83.632812 27.9375 81.953125 29.15625 C 81.792969 29.273438 81.714844 29.394531 81.828125 29.640625 C 82.199219 30.4375 82.527344 31.253906 82.863281 32.066406 C 83.429688 33.433594 83.984375 34.804688 84.554688 36.167969 C 85.082031 37.4375 85.632812 38.699219 86.160156 39.972656 C 86.804688 41.523438 87.433594 43.082031 88.070312 44.640625 C 88.40625 45.464844 88.75 46.289062 89.09375 47.109375 C 89.601562 48.316406 90.113281 49.519531 90.621094 50.726562 C 90.96875 51.546875 91.320312 52.367188 91.660156 53.191406 C 92.082031 54.226562 92.484375 55.269531 92.914062 56.296875 C 92.976562 56.449219 93.113281 56.597656 93.339844 56.398438 C 93.660156 56.113281 94.003906 55.84375 94.367188 55.617188 C 95.984375 54.605469 97.605469 53.597656 99.242188 52.613281 C 100.292969 51.976562 101.355469 51.355469 102.441406 50.78125 C 104.199219 49.851562 106 49.007812 107.867188 48.3125 C 109.460938 47.714844 111.050781 47.09375 112.660156 46.53125 C 113.921875 46.09375 115.207031 45.714844 116.488281 45.335938 C 118.078125 44.863281 119.671875 44.40625 121.269531 43.960938 C 123.121094 43.449219 124.976562 42.941406 126.839844 42.460938 C 128.585938 42.011719 130.34375 41.605469 132.09375 41.164062 C 132.238281 41.128906 132.46875 40.957031 132.460938 40.863281 C 132.429688 40.390625 132.339844 39.921875 132.261719 39.449219 C 132.117188 38.621094 131.960938 37.789062 131.824219 36.957031 C 131.714844 36.28125 131.636719 35.597656 131.527344 34.917969 C 131.390625 34.0625 131.230469 33.207031 131.089844 32.351562 C 131.007812 31.835938 130.945312 31.3125 130.859375 30.796875 C 130.722656 29.953125 130.570312 29.109375 130.429688 28.265625 C 130.34375 27.738281 130.273438 27.207031 130.1875 26.679688 C 130.078125 25.992188 129.953125 25.308594 129.84375 24.625 C 129.761719 24.09375 129.707031 23.5625 129.617188 23.03125 C 129.507812 22.382812 129.367188 21.742188 129.257812 21.09375 C 129.101562 20.152344 128.964844 19.210938 128.816406 18.199219 M 63.40625 85.734375 C 63.457031 85.707031 63.515625 85.691406 63.554688 85.65625 C 64.003906 85.261719 64.433594 84.84375 64.898438 84.46875 C 65.933594 83.628906 66.867188 82.691406 67.796875 81.738281 C 69.328125 80.167969 70.84375 78.589844 72.246094 76.90625 C 72.945312 76.066406 73.722656 75.296875 74.4375 74.472656 C 75.214844 73.582031 75.949219 72.652344 76.726562 71.761719 C 77.722656 70.617188 78.726562 69.476562 79.761719 68.367188 C 80.574219 67.492188 81.441406 66.667969 82.292969 65.828125 C 82.738281 65.386719 83.203125 64.960938 83.660156 64.53125 C 84.640625 63.597656 85.621094 62.660156 86.605469 61.734375 C 86.863281 61.488281 87.140625 61.265625 87.414062 61.035156 C 87.914062 60.617188 88.421875 60.210938 88.90625 59.78125 C 88.980469 59.714844 89.003906 59.519531 88.96875 59.414062 C 88.496094 58.144531 88.007812 56.882812 87.523438 55.617188 C 86.875 53.917969 86.21875 52.222656 85.582031 50.519531 C 85.03125 49.039062 84.519531 47.542969 83.960938 46.0625 C 83.148438 43.90625 82.304688 41.765625 81.488281 39.613281 C 80.546875 37.132812 79.617188 34.648438 78.695312 32.15625 C 78.59375 31.882812 78.460938 31.871094 78.292969 32.015625 C 77.664062 32.546875 77.027344 33.070312 76.441406 33.648438 C 75.28125 34.792969 74.152344 35.96875 73.019531 37.140625 C 72.738281 37.425781 72.488281 37.742188 72.242188 38.0625 C 71.699219 38.761719 71.171875 39.476562 70.628906 40.179688 C 70.144531 40.808594 69.609375 41.40625 69.167969 42.066406 C 68.140625 43.613281 67.152344 45.1875 66.15625 46.753906 C 65.273438 48.144531 64.421875 49.558594 63.507812 50.933594 C 62.882812 51.878906 62.191406 52.785156 61.507812 53.695312 C 60.964844 54.417969 60.441406 55.164062 59.8125 55.808594 C 59.058594 56.582031 58.210938 57.269531 57.378906 57.964844 C 56.769531 58.476562 56.136719 58.957031 55.488281 59.417969 C 54.125 60.398438 52.632812 61.164062 51.097656 61.816406 C 49.710938 62.402344 48.296875 62.957031 46.78125 63.167969 C 46.636719 63.1875 46.488281 63.214844 46.570312 63.488281 C 46.941406 64.683594 47.273438 65.886719 47.613281 67.089844 C 48.179688 69.09375 48.734375 71.097656 49.300781 73.097656 C 49.757812 74.714844 50.226562 76.328125 50.691406 77.945312 C 51.003906 79.023438 51.335938 80.097656 51.640625 81.175781 C 52.097656 82.785156 52.535156 84.398438 52.984375 86.007812 C 53.21875 86.863281 53.457031 87.71875 53.703125 88.570312 C 53.722656 88.636719 53.820312 88.722656 53.890625 88.730469 C 54.195312 88.773438 54.503906 88.816406 54.808594 88.804688 C 55.21875 88.785156 55.632812 88.742188 56.03125 88.660156 C 56.972656 88.464844 57.921875 88.28125 58.839844 88.011719 C 59.617188 87.78125 60.371094 87.457031 61.117188 87.136719 C 61.929688 86.789062 62.703125 86.363281 63.40625 85.734375 M 19.25 75.730469 C 19.457031 76.304688 19.667969 76.875 19.871094 77.449219 C 20.453125 79.078125 21.027344 80.707031 21.609375 82.335938 C 21.652344 82.449219 21.730469 82.546875 21.792969 82.65625 C 21.859375 82.558594 21.925781 82.464844 21.992188 82.371094 C 22.035156 82.304688 22.074219 82.230469 22.121094 82.167969 C 22.472656 81.714844 22.828125 81.261719 23.183594 80.8125 C 24.191406 79.535156 25.179688 78.234375 26.21875 76.984375 C 27.039062 76 27.882812 75.03125 28.785156 74.128906 C 30.058594 72.855469 31.355469 71.605469 32.714844 70.429688 C 33.75 69.527344 34.898438 68.757812 35.984375 67.917969 C 36.089844 67.835938 36.183594 67.621094 36.148438 67.503906 C 35.683594 65.84375 35.195312 64.1875 34.714844 62.53125 C 34.226562 60.84375 33.738281 59.152344 33.25 57.460938 C 32.785156 55.859375 32.324219 54.253906 31.855469 52.652344 C 31.542969 51.585938 31.214844 50.523438 30.90625 49.457031 C 30.441406 47.867188 29.992188 46.269531 29.535156 44.675781 C 29.210938 43.554688 28.859375 42.4375 28.574219 41.304688 C 28.480469 40.929688 28.320312 40.984375 28.113281 41.105469 C 27.585938 41.40625 27.066406 41.714844 26.558594 42.042969 C 25.171875 42.941406 23.972656 44.066406 22.777344 45.1875 C 22.058594 45.859375 21.476562 46.671875 20.816406 47.40625 C 20.164062 48.132812 19.488281 48.835938 18.828125 49.550781 C 18.605469 49.789062 18.386719 50.023438 18.179688 50.273438 C 17.355469 51.261719 16.542969 52.257812 15.714844 53.242188 C 15.363281 53.664062 14.976562 54.054688 14.636719 54.484375 C 14.019531 55.273438 13.414062 56.074219 12.824219 56.886719 C 12.722656 57.027344 12.644531 57.265625 12.6875 57.421875 C 12.851562 57.996094 13.066406 58.558594 13.269531 59.121094 C 13.945312 60.980469 14.625 62.835938 15.292969 64.695312 C 15.621094 65.609375 15.921875 66.535156 16.25 67.449219 C 16.925781 69.328125 17.613281 71.207031 18.300781 73.082031 C 18.613281 73.941406 18.933594 74.796875 19.25 75.730469 M 38.710938 60.523438 C 38.691406 60.429688 38.683594 60.339844 38.65625 60.25 C 38.339844 59.222656 38.019531 58.195312 37.699219 57.167969 C 37.167969 55.457031 36.648438 53.742188 36.101562 52.039062 C 35.890625 51.371094 35.644531 50.710938 35.359375 50.074219 C 35.019531 49.316406 34.75 48.550781 34.789062 47.707031 C 34.808594 47.328125 34.816406 46.945312 34.867188 46.566406 C 34.9375 46.054688 35.023438 45.539062 35.148438 45.035156 C 35.53125 43.464844 36.457031 42.167969 37.304688 40.835938 C 37.851562 39.976562 38.496094 39.179688 39.109375 38.359375 C 39.449219 37.902344 39.8125 37.457031 40.164062 37.003906 C 40.195312 36.964844 40.226562 36.875 40.207031 36.847656 C 40.171875 36.804688 40.09375 36.777344 40.035156 36.78125 C 39.605469 36.796875 39.175781 36.804688 38.75 36.855469 C 38.042969 36.9375 37.328125 36.992188 36.636719 37.15625 C 35.480469 37.425781 34.328125 37.738281 33.253906 38.273438 C 32.699219 38.554688 32.148438 38.847656 31.589844 39.121094 C 30.652344 39.578125 30.632812 39.453125 30.898438 40.378906 C 31.421875 42.226562 31.90625 44.089844 32.414062 45.941406 C 32.707031 47.015625 33.027344 48.085938 33.320312 49.15625 C 33.683594 50.476562 34.023438 51.796875 34.382812 53.117188 C 34.707031 54.300781 35.050781 55.476562 35.375 56.664062 C 35.800781 58.234375 36.210938 59.808594 36.636719 61.378906 C 37.089844 63.035156 37.550781 64.6875 38.015625 66.339844 C 38.074219 66.550781 38.15625 66.664062 38.449219 66.523438 C 38.996094 66.257812 39.582031 66.082031 40.15625 65.875 C 40.28125 65.828125 40.390625 65.847656 40.3125 65.628906 C 40.058594 64.925781 39.847656 64.207031 39.628906 63.492188 C 39.328125 62.515625 39.039062 61.535156 38.710938 60.523438 M 45.890625 70.710938 C 45.632812 69.765625 45.378906 68.820312 45.113281 67.878906 C 44.703125 66.414062 44.292969 64.949219 43.863281 63.488281 C 43.808594 63.308594 43.648438 63.082031 43.488281 63.03125 C 43.097656 62.90625 42.671875 62.882812 42.269531 62.792969 C 41.460938 62.613281 40.65625 62.410156 40.046875 61.789062 C 39.980469 61.722656 39.898438 61.671875 39.816406 61.636719 C 39.769531 61.613281 39.703125 61.636719 39.644531 61.636719 C 39.660156 61.6875 39.667969 61.738281 39.683594 61.789062 C 39.992188 62.78125 40.308594 63.777344 40.613281 64.773438 C 41.023438 66.105469 41.421875 67.441406 41.832031 68.773438 C 42.371094 70.515625 42.921875 72.253906 43.460938 73.996094 C 44 75.726562 44.53125 77.460938 45.066406 79.191406 C 45.546875 80.738281 46.03125 82.285156 46.515625 83.828125 C 46.628906 84.183594 46.675781 84.601562 46.894531 84.875 C 47.523438 85.65625 48.226562 86.382812 48.898438 87.128906 C 49.359375 87.640625 49.964844 87.921875 50.59375 88.164062 C 50.679688 88.195312 50.761719 88.222656 50.847656 88.25 C 50.84375 88.160156 50.863281 88.0625 50.835938 87.980469 C 50.597656 87.199219 50.335938 86.425781 50.109375 85.644531 C 49.613281 83.929688 49.132812 82.214844 48.644531 80.5 C 48.300781 79.285156 47.957031 78.074219 47.613281 76.859375 C 47.175781 75.308594 46.730469 73.757812 46.296875 72.207031 C 46.160156 71.722656 46.050781 71.234375 45.890625 70.710938 M 45.269531 45.609375 C 44.753906 46.300781 44.195312 46.960938 43.742188 47.6875 C 42.980469 48.914062 42.269531 50.175781 41.574219 51.445312 C 41.390625 51.785156 41.335938 52.199219 41.242188 52.585938 C 41.203125 52.75 41.25 52.832031 41.472656 52.761719 C 41.757812 52.671875 42.070312 52.675781 42.359375 52.605469 C 43.894531 52.230469 45.355469 51.640625 46.773438 50.964844 C 47.839844 50.457031 48.820312 49.773438 49.832031 49.15625 C 49.898438 49.117188 49.964844 48.96875 49.941406 48.898438 C 49.597656 47.855469 49.230469 46.824219 48.890625 45.78125 C 48.574219 44.8125 48.285156 43.832031 47.96875 42.863281 C 47.949219 42.800781 47.730469 42.734375 47.6875 42.769531 C 47.453125 42.964844 47.230469 43.175781 47.035156 43.410156 C 46.4375 44.113281 45.855469 44.824219 45.269531 45.609375 M 144.902344 46.011719 C 145.308594 45.988281 145.714844 45.960938 146.117188 45.9375 C 146.394531 45.925781 146.53125 45.761719 146.480469 45.496094 C 146.359375 44.863281 146.234375 44.230469 146.113281 43.597656 C 145.980469 42.925781 145.980469 42.921875 145.269531 42.9375 C 145.132812 42.9375 145 42.992188 144.863281 43.003906 C 144.109375 43.082031 143.359375 43.152344 142.609375 43.226562 C 141.574219 43.324219 140.542969 43.425781 139.507812 43.519531 C 138.585938 43.597656 137.664062 43.664062 136.742188 43.738281 C 136.355469 43.769531 136.289062 43.886719 136.4375 44.242188 C 136.722656 44.902344 137 45.570312 137.285156 46.234375 C 137.417969 46.535156 137.558594 46.8125 137.976562 46.746094 C 138.394531 46.683594 138.816406 46.640625 139.234375 46.597656 C 139.8125 46.542969 140.390625 46.503906 140.96875 46.449219 C 141.929688 46.355469 142.890625 46.257812 143.851562 46.15625 C 144.191406 46.121094 144.527344 46.085938 144.902344 46.011719 M 66.007812 88.773438 C 65.925781 88.8125 65.839844 88.839844 65.761719 88.886719 C 64.070312 89.839844 62.378906 90.796875 60.6875 91.75 C 60.289062 91.972656 60.277344 92.089844 60.582031 92.441406 C 61.101562 93.039062 61.609375 93.644531 62.109375 94.261719 C 62.359375 94.570312 62.519531 94.605469 62.816406 94.390625 C 63.367188 93.988281 63.929688 93.601562 64.488281 93.207031 C 65.175781 92.722656 65.863281 92.230469 66.554688 91.746094 C 67.433594 91.132812 68.308594 90.507812 69.207031 89.921875 C 69.414062 89.785156 69.40625 89.742188 69.257812 89.601562 C 68.753906 89.128906 68.257812 88.652344 67.757812 88.179688 C 67.585938 88.019531 67.402344 87.976562 67.175781 88.113281 C 66.808594 88.335938 66.425781 88.53125 66.007812 88.773438 M 107.894531 52.679688 C 107.003906 53.070312 106.117188 53.460938 105.230469 53.851562 C 105 53.953125 104.777344 54.015625 105.0625 54.335938 C 105.472656 54.785156 105.835938 55.277344 106.207031 55.761719 C 106.671875 56.359375 106.675781 56.386719 107.324219 56.121094 C 108.609375 55.589844 109.878906 55.03125 111.152344 54.480469 C 112.019531 54.101562 112.882812 53.710938 113.757812 53.34375 C 114.003906 53.242188 113.988281 53.113281 113.867188 52.941406 C 113.464844 52.363281 113.054688 51.789062 112.65625 51.210938 C 112.34375 50.765625 112.351562 50.769531 111.84375 50.992188 C 110.554688 51.558594 109.261719 52.117188 107.894531 52.679688 M 113.464844 10.832031 C 113.488281 10.808594 113.511719 10.769531 113.542969 10.761719 C 114.1875 10.636719 114.832031 10.515625 115.476562 10.394531 C 117.125 10.074219 118.773438 9.761719 120.421875 9.433594 C 120.566406 9.40625 120.730469 9.378906 120.621094 9.105469 C 120.382812 8.507812 120.222656 7.878906 120.011719 7.273438 C 119.925781 7.03125 119.753906 6.898438 119.464844 6.953125 C 118.917969 7.0625 118.371094 7.152344 117.824219 7.238281 C 117.296875 7.324219 116.765625 7.390625 116.238281 7.472656 C 115.542969 7.585938 114.847656 7.714844 114.152344 7.828125 C 113.5 7.929688 112.839844 8.011719 112.191406 8.132812 C 112.101562 8.152344 111.992188 8.351562 111.992188 8.46875 C 111.988281 8.667969 112.0625 8.871094 112.109375 9.074219 C 112.230469 9.621094 112.347656 10.167969 112.476562 10.714844 C 112.519531 10.898438 112.589844 11.03125 112.839844 10.914062 C 113 10.839844 113.207031 10.855469 113.464844 10.832031 M 120.316406 49.785156 C 120.460938 50.03125 120.625 50.265625 120.75 50.519531 C 120.84375 50.714844 120.941406 50.765625 121.164062 50.707031 C 121.90625 50.519531 122.65625 50.363281 123.398438 50.1875 C 124.832031 49.847656 126.265625 49.511719 127.691406 49.152344 C 127.792969 49.125 127.929688 48.925781 127.917969 48.828125 C 127.851562 48.3125 127.730469 47.808594 127.648438 47.296875 C 127.5625 46.75 127.457031 46.609375 127.097656 46.671875 C 126.03125 46.863281 124.964844 47.054688 123.902344 47.257812 C 122.523438 47.519531 121.148438 47.792969 119.773438 48.066406 C 119.546875 48.109375 119.460938 48.242188 119.582031 48.464844 C 119.816406 48.890625 120.046875 49.320312 120.316406 49.785156 M 97.925781 61.988281 C 98.542969 61.5 99.144531 60.992188 99.78125 60.53125 C 100.011719 60.363281 100.007812 60.253906 99.832031 60.085938 C 99.335938 59.609375 98.84375 59.128906 98.332031 58.664062 C 98.171875 58.519531 97.984375 58.472656 97.777344 58.679688 C 97.515625 58.945312 97.21875 59.1875 96.910156 59.40625 C 95.414062 60.476562 93.910156 61.53125 92.410156 62.59375 C 92.214844 62.734375 92.183594 62.875 92.390625 63.054688 C 92.980469 63.554688 93.558594 64.066406 94.140625 64.578125 C 94.316406 64.734375 94.488281 64.71875 94.667969 64.585938 C 94.777344 64.503906 94.890625 64.417969 95 64.328125 C 95.960938 63.5625 96.925781 62.792969 97.925781 61.988281 M 58.351562 49.675781 C 59.144531 48.785156 59.933594 47.890625 60.730469 47.003906 C 61.320312 46.351562 61.925781 45.722656 62.507812 45.0625 C 62.59375 44.964844 62.636719 44.75 62.59375 44.628906 C 62.433594 44.160156 62.230469 43.703125 62.035156 43.25 C 61.816406 42.742188 61.8125 42.742188 61.375 43.058594 C 61.300781 43.113281 61.214844 43.15625 61.148438 43.21875 C 60.320312 43.992188 59.492188 44.765625 58.671875 45.546875 C 57.917969 46.265625 57.179688 47 56.421875 47.710938 C 56.226562 47.894531 56.242188 48.035156 56.382812 48.222656 C 56.738281 48.695312 57.085938 49.175781 57.445312 49.644531 C 57.574219 49.8125 57.707031 50.046875 57.871094 50.085938 C 57.984375 50.109375 58.164062 49.847656 58.351562 49.675781 M 13.460938 47.367188 C 13.34375 47.296875 13.234375 47.203125 13.105469 47.167969 C 12.984375 47.132812 12.800781 47.109375 12.71875 47.175781 C 12.464844 47.378906 12.21875 47.609375 12.019531 47.867188 C 11.265625 48.84375 10.535156 49.839844 9.785156 50.820312 C 9.167969 51.628906 8.523438 52.417969 7.910156 53.230469 C 7.847656 53.3125 7.859375 53.554688 7.925781 53.613281 C 8.289062 53.917969 8.683594 54.191406 9.066406 54.476562 C 9.257812 54.621094 9.425781 54.578125 9.566406 54.410156 C 9.730469 54.210938 9.871094 53.992188 10.035156 53.800781 C 10.835938 52.871094 11.636719 51.945312 12.441406 51.027344 C 13.230469 50.128906 14.027344 49.242188 14.824219 48.351562 C 14.972656 48.1875 14.988281 48.085938 14.757812 47.984375 C 14.332031 47.804688 13.917969 47.597656 13.460938 47.367188 M 47.578125 54.660156 C 47.203125 54.878906 46.832031 55.101562 46.457031 55.316406 C 46.285156 55.417969 46.097656 55.507812 46.3125 55.738281 C 46.734375 56.1875 47.167969 56.625 47.574219 57.085938 C 47.757812 57.289062 47.925781 57.234375 48.105469 57.132812 C 48.742188 56.777344 49.363281 56.402344 50.003906 56.054688 C 51.011719 55.507812 52.023438 54.972656 53.035156 54.441406 C 53.222656 54.34375 53.304688 54.226562 53.183594 54.035156 C 52.839844 53.492188 52.5 52.949219 52.144531 52.414062 C 52.007812 52.210938 51.828125 52.179688 51.589844 52.320312 C 50.792969 52.804688 49.976562 53.253906 49.171875 53.726562 C 48.660156 54.03125 48.15625 54.347656 47.578125 54.660156 M 144.757812 6.949219 C 145.5 7.046875 146.238281 7.144531 146.980469 7.242188 C 147.394531 7.296875 147.820312 7.320312 148.222656 7.425781 C 148.460938 7.488281 148.535156 7.378906 148.597656 7.238281 C 148.652344 7.113281 148.65625 6.96875 148.679688 6.832031 C 148.757812 6.265625 148.816406 5.695312 148.921875 5.136719 C 149.011719 4.691406 148.988281 4.605469 148.546875 4.605469 C 146.75 4.601562 144.957031 4.597656 143.164062 4.613281 C 143.046875 4.613281 142.863281 4.738281 142.828125 4.84375 C 142.644531 5.367188 142.492188 5.902344 142.347656 6.4375 C 142.332031 6.496094 142.414062 6.640625 142.464844 6.648438 C 143.203125 6.757812 143.945312 6.851562 144.757812 6.949219 M 33.910156 30.949219 C 33.757812 30.929688 33.601562 30.867188 33.460938 30.894531 C 33.234375 30.941406 33.019531 31.058594 32.792969 31.132812 C 31.113281 31.695312 29.429688 32.253906 27.746094 32.824219 C 27.585938 32.875 27.386719 32.953125 27.464844 33.1875 C 27.644531 33.734375 27.84375 34.273438 28.03125 34.820312 C 28.089844 34.996094 28.152344 35.054688 28.363281 34.972656 C 28.886719 34.765625 29.433594 34.613281 29.96875 34.429688 C 31.390625 33.945312 32.8125 33.457031 34.226562 32.957031 C 34.339844 32.917969 34.503906 32.722656 34.480469 32.652344 C 34.3125 32.101562 34.105469 31.566406 33.910156 30.949219 M 78.320312 27.210938 C 78.351562 27.199219 78.390625 27.195312 78.414062 27.175781 C 79.800781 26.1875 81.1875 25.195312 82.574219 24.210938 C 82.738281 24.09375 82.726562 23.949219 82.628906 23.832031 C 82.347656 23.503906 82.058594 23.175781 81.742188 22.882812 C 81.65625 22.804688 81.410156 22.785156 81.308594 22.847656 C 79.441406 24.007812 77.589844 25.195312 75.722656 26.355469 C 75.488281 26.5 75.492188 26.597656 75.625 26.789062 C 75.925781 27.226562 76.207031 27.675781 76.511719 28.109375 C 76.644531 28.300781 76.796875 28.34375 77.019531 28.164062 C 77.421875 27.835938 77.859375 27.550781 78.320312 27.210938 M 76.746094 79.0625 C 76.535156 78.925781 76.316406 78.796875 76.113281 78.648438 C 75.863281 78.464844 75.652344 78.511719 75.460938 78.734375 C 75.160156 79.085938 74.867188 79.445312 74.554688 79.785156 C 73.730469 80.691406 72.90625 81.59375 72.070312 82.488281 C 71.878906 82.691406 71.902344 82.851562 72.105469 82.992188 C 72.71875 83.421875 73.335938 83.839844 73.957031 84.261719 C 74.144531 84.390625 74.308594 84.347656 74.433594 84.160156 C 74.703125 83.761719 74.96875 83.355469 75.246094 82.960938 C 75.84375 82.097656 76.4375 81.230469 77.046875 80.378906 C 77.609375 79.597656 77.589844 79.480469 76.746094 79.0625 M 92.136719 18.746094 C 92.847656 18.40625 93.558594 18.058594 94.273438 17.726562 C 94.398438 17.667969 94.488281 17.648438 94.34375 17.507812 C 93.949219 17.125 93.570312 16.726562 93.175781 16.347656 C 93.035156 16.214844 92.886719 16.125 92.648438 16.246094 C 92.105469 16.519531 91.535156 16.738281 90.980469 16.988281 C 89.738281 17.550781 88.492188 18.109375 87.257812 18.679688 C 87.054688 18.773438 86.898438 18.90625 87.074219 19.195312 C 87.335938 19.628906 87.5625 20.085938 87.769531 20.550781 C 87.878906 20.792969 87.984375 20.816406 88.210938 20.699219 C 89.503906 20.054688 90.804688 19.421875 92.136719 18.746094 M 70.113281 32.195312 C 69.59375 32.761719 69.082031 33.335938 68.558594 33.894531 C 67.769531 34.742188 66.96875 35.582031 66.175781 36.425781 C 65.855469 36.769531 65.527344 37.105469 65.226562 37.464844 C 65.164062 37.542969 65.148438 37.753906 65.207031 37.824219 C 65.503906 38.1875 65.820312 38.535156 66.164062 38.855469 C 66.257812 38.9375 66.539062 38.964844 66.617188 38.890625 C 66.898438 38.625 67.132812 38.308594 67.378906 38.007812 C 68.167969 37.050781 68.945312 36.089844 69.738281 35.140625 C 70.34375 34.417969 70.96875 33.71875 71.570312 33 C 71.617188 32.941406 71.605469 32.730469 71.570312 32.714844 C 71.101562 32.515625 70.625 32.339844 70.113281 32.195312 M 85.246094 70.929688 C 85.601562 70.574219 85.945312 70.210938 86.3125 69.871094 C 86.453125 69.742188 86.460938 69.621094 86.371094 69.492188 C 86.046875 69.035156 85.734375 68.578125 85.382812 68.144531 C 85.257812 67.996094 85.089844 68.007812 84.980469 68.253906 C 84.855469 68.53125 84.703125 68.820312 84.492188 69.035156 C 83.535156 70 82.550781 70.9375 81.578125 71.886719 C 81.394531 72.066406 81.21875 72.253906 81.03125 72.429688 C 80.851562 72.597656 80.65625 72.753906 80.46875 72.921875 C 80.300781 73.078125 80.257812 73.210938 80.460938 73.410156 C 80.789062 73.734375 81.070312 74.109375 81.375 74.457031 C 81.53125 74.636719 81.71875 74.679688 81.898438 74.496094 C 82.085938 74.300781 82.253906 74.078125 82.445312 73.882812 C 83.335938 72.957031 84.238281 72.039062 85.132812 71.113281 C 85.167969 71.078125 85.183594 71.015625 85.246094 70.929688 M 104.046875 13.140625 C 104.347656 12.984375 104.652344 12.835938 104.945312 12.660156 C 105.117188 12.558594 105.230469 12.425781 105.085938 12.191406 C 104.960938 11.992188 104.886719 11.761719 104.796875 11.542969 C 104.574219 11 104.265625 10.882812 103.714844 11.125 C 103.53125 11.207031 103.335938 11.273438 103.148438 11.34375 C 101.683594 11.90625 100.214844 12.464844 98.753906 13.035156 C 98.589844 13.097656 98.496094 13.226562 98.621094 13.417969 C 98.914062 13.859375 99.199219 14.300781 99.492188 14.742188 C 99.90625 15.371094 99.910156 15.375 100.53125 15.042969 C 101.691406 14.421875 102.851562 13.800781 104.046875 13.140625 M 131.347656 5.261719 C 130.203125 5.191406 129.0625 5.109375 127.921875 5.046875 C 127.550781 5.023438 127.5 5.117188 127.59375 5.472656 C 127.742188 6.011719 127.882812 6.550781 128.007812 7.09375 C 128.109375 7.527344 128.191406 7.617188 128.636719 7.605469 C 128.832031 7.601562 129.03125 7.550781 129.226562 7.535156 C 130.441406 7.460938 131.65625 7.390625 132.871094 7.3125 C 133.214844 7.292969 133.5625 7.292969 133.898438 7.226562 C 134.007812 7.207031 134.148438 7.007812 134.152344 6.886719 C 134.167969 6.519531 134.09375 6.152344 134.101562 5.78125 C 134.105469 5.503906 133.941406 5.429688 133.738281 5.414062 C 132.964844 5.355469 132.191406 5.3125 131.347656 5.261719 M 36.4375 75.398438 C 36.515625 75.472656 36.597656 75.542969 36.675781 75.621094 C 36.964844 75.902344 37.203125 75.867188 37.511719 75.589844 C 37.921875 75.222656 38.398438 74.921875 38.851562 74.597656 C 39.5 74.136719 40.15625 73.683594 40.808594 73.226562 C 41.007812 73.085938 41.0625 72.925781 40.921875 72.695312 C 40.761719 72.433594 40.652344 72.148438 40.503906 71.878906 C 40.089844 71.136719 40.085938 71.136719 39.339844 71.542969 C 39.28125 71.578125 39.222656 71.613281 39.164062 71.648438 C 37.898438 72.421875 36.640625 73.207031 35.367188 73.96875 C 35.121094 74.113281 35.074219 74.21875 35.296875 74.40625 C 35.667969 74.722656 36.03125 75.042969 36.4375 75.398438 M 18.152344 41.871094 C 17.859375 42.164062 17.554688 42.449219 17.277344 42.757812 C 17.207031 42.839844 17.171875 43.070312 17.226562 43.121094 C 17.453125 43.328125 17.746094 43.46875 17.972656 43.679688 C 18.207031 43.902344 18.394531 43.816406 18.59375 43.664062 C 18.703125 43.578125 18.808594 43.484375 18.910156 43.382812 C 20.4375 41.882812 21.960938 40.375 23.496094 38.878906 C 23.703125 38.679688 23.628906 38.535156 23.46875 38.394531 C 23.253906 38.210938 23.015625 38.058594 22.804688 37.871094 C 22.484375 37.589844 22.371094 37.574219 22.074219 37.878906 C 21.558594 38.40625 21.0625 38.949219 20.542969 39.472656 C 19.765625 40.265625 18.976562 41.046875 18.152344 41.871094 M 30.609375 78 C 29.792969 78.769531 28.988281 79.550781 28.152344 80.300781 C 27.894531 80.53125 28.011719 80.648438 28.199219 80.792969 C 28.582031 81.082031 28.96875 81.359375 29.347656 81.648438 C 29.589844 81.832031 29.78125 81.808594 29.980469 81.570312 C 30.59375 80.84375 31.21875 80.125 31.84375 79.410156 C 32.234375 78.960938 32.648438 78.527344 33.023438 78.0625 C 33.09375 77.976562 33.09375 77.757812 33.03125 77.652344 C 32.835938 77.316406 32.605469 76.996094 32.359375 76.691406 C 32.3125 76.628906 32.085938 76.621094 32.023438 76.679688 C 31.554688 77.09375 31.105469 77.53125 30.609375 78 M 53.550781 96.105469 C 53.597656 95.988281 53.6875 95.875 53.691406 95.761719 C 53.703125 95.164062 53.683594 94.566406 53.703125 93.972656 C 53.710938 93.613281 53.515625 93.457031 53.210938 93.433594 C 52.085938 93.347656 50.957031 93.296875 49.832031 93.199219 C 49.4375 93.167969 49.472656 93.40625 49.527344 93.609375 C 49.703125 94.230469 49.898438 94.84375 50.125 95.445312 C 50.179688 95.585938 50.371094 95.714844 50.523438 95.761719 C 50.746094 95.832031 50.988281 95.820312 51.222656 95.847656 C 51.988281 95.945312 52.75 96.042969 53.550781 96.105469 M 37.867188 55.941406 C 38.011719 56.355469 38.144531 56.777344 38.3125 57.183594 C 38.378906 57.335938 38.5 57.523438 38.640625 57.578125 C 39.480469 57.902344 40.359375 58.074219 41.25 58.167969 C 41.289062 58.171875 41.382812 58.050781 41.378906 58 C 41.332031 57.59375 41.261719 57.191406 41.207031 56.789062 C 41.140625 56.292969 40.914062 55.8125 41.074219 55.285156 C 41.097656 55.210938 40.894531 54.996094 40.769531 54.964844 C 40.519531 54.902344 40.246094 54.941406 39.984375 54.90625 C 39.25 54.808594 38.515625 54.6875 37.777344 54.589844 C 37.597656 54.566406 37.433594 54.5625 37.5625 54.859375 C 37.707031 55.179688 37.769531 55.53125 37.867188 55.941406 M 44.058594 41.46875 C 44.492188 40.816406 44.914062 40.15625 45.359375 39.515625 C 45.570312 39.210938 45.570312 38.957031 45.359375 38.652344 C 45.113281 38.300781 44.90625 37.914062 44.683594 37.542969 C 44.628906 37.457031 44.566406 37.375 44.507812 37.289062 C 44.417969 37.359375 44.308594 37.414062 44.246094 37.503906 C 43.871094 38.027344 43.503906 38.5625 43.136719 39.09375 C 42.710938 39.710938 42.28125 40.324219 41.875 40.953125 C 41.808594 41.058594 41.785156 41.296875 41.855469 41.363281 C 42.207031 41.714844 42.609375 42.019531 42.96875 42.367188 C 43.195312 42.582031 43.355469 42.519531 43.5 42.3125 C 43.6875 42.050781 43.851562 41.773438 44.058594 41.46875 M 12.65625 104.75 C 12.199219 105.671875 11.742188 106.597656 11.28125 107.515625 C 11.167969 107.742188 11.199219 107.867188 11.457031 107.941406 C 11.824219 108.050781 12.183594 108.203125 12.554688 108.296875 C 12.699219 108.332031 12.859375 108.363281 12.960938 108.09375 C 13.519531 106.628906 14.121094 105.179688 14.703125 103.722656 C 14.738281 103.644531 14.75 103.476562 14.71875 103.460938 C 14.394531 103.304688 14.0625 103.15625 13.722656 103.042969 C 13.664062 103.023438 13.515625 103.152344 13.46875 103.242188 C 13.199219 103.726562 12.949219 104.222656 12.65625 104.75 M 22.953125 90.058594 C 23.71875 89.144531 24.492188 88.234375 25.25 87.3125 C 25.371094 87.164062 25.507812 86.980469 25.308594 86.761719 C 25.117188 86.554688 24.964844 86.320312 24.785156 86.101562 C 24.449219 85.691406 24.328125 85.707031 24.015625 86.132812 C 23.183594 87.265625 22.339844 88.390625 21.519531 89.527344 C 21.433594 89.648438 21.394531 89.90625 21.464844 90.011719 C 21.632812 90.257812 21.871094 90.464844 22.101562 90.660156 C 22.175781 90.722656 22.371094 90.765625 22.414062 90.722656 C 22.601562 90.53125 22.753906 90.304688 22.953125 90.058594 M 19.324219 96.105469 C 19.085938 95.886719 18.855469 95.65625 18.601562 95.460938 C 18.417969 95.324219 18.238281 95.207031 18.042969 95.535156 C 17.394531 96.625 16.699219 97.6875 16.027344 98.765625 C 15.785156 99.15625 15.820312 99.222656 16.246094 99.441406 C 16.359375 99.496094 16.457031 99.578125 16.5625 99.644531 C 17.132812 100.003906 17.265625 99.972656 17.617188 99.421875 C 17.65625 99.363281 17.679688 99.300781 17.710938 99.242188 C 18.101562 98.535156 18.5 97.835938 18.882812 97.128906 C 19.046875 96.820312 19.179688 96.496094 19.324219 96.105469 M 39.332031 48.101562 C 39.796875 47.660156 40.269531 47.230469 40.71875 46.773438 C 40.816406 46.675781 40.890625 46.457031 40.851562 46.335938 C 40.71875 45.957031 40.511719 45.601562 40.363281 45.222656 C 40.277344 44.996094 40.203125 45.082031 40.113281 45.195312 C 39.945312 45.402344 39.792969 45.625 39.621094 45.828125 C 39.109375 46.449219 38.582031 47.054688 38.078125 47.679688 C 37.964844 47.820312 37.886719 47.992188 38.085938 48.183594 C 38.675781 48.757812 38.664062 48.765625 39.242188 48.1875 C 39.261719 48.171875 39.277344 48.152344 39.332031 48.101562 Z M 39.332031 48.101562 " fill-opacity="1" fill-rule="nonzero"/></g></g></g></g><g fill="#865dff" fill-opacity="1"><g transform="translate(5.000746, 90.838247)"><g><path d="M 37.703125 -34.96875 L 37.703125 0 L 29.625 0 L 29.625 -20.96875 L 23.65625 -6.6875 L 16.625 -6.6875 L 10.765625 -20.96875 L 10.765625 0 L 2.671875 0 L 2.671875 -34.96875 L 13.21875 -34.96875 L 20.296875 -17.34375 L 27.5625 -34.96875 Z M 37.703125 -34.96875 "/></g></g></g><g fill="#865dff" fill-opacity="1"><g transform="translate(51.349326, 90.838247)"><g><path d="M 34.421875 -17.515625 C 34.421875 -11.160156 33.125 -6.554688 30.53125 -3.703125 C 27.945312 -0.859375 23.757812 0.5625 17.96875 0.5625 C 11.90625 0.5625 7.644531 -0.773438 5.1875 -3.453125 C 2.726562 -6.128906 1.5 -10.816406 1.5 -17.515625 C 1.5 -23.867188 2.789062 -28.457031 5.375 -31.28125 C 7.96875 -34.113281 12.164062 -35.53125 17.96875 -35.53125 C 24.019531 -35.53125 28.273438 -34.191406 30.734375 -31.515625 C 33.191406 -28.835938 34.421875 -24.171875 34.421875 -17.515625 Z M 11.328125 -10.046875 C 11.804688 -9.109375 12.519531 -8.453125 13.46875 -8.078125 C 14.414062 -7.710938 15.914062 -7.53125 17.96875 -7.53125 C 20.007812 -7.53125 21.503906 -7.710938 22.453125 -8.078125 C 23.398438 -8.453125 24.113281 -9.109375 24.59375 -10.046875 C 24.96875 -10.785156 25.238281 -11.75 25.40625 -12.9375 C 25.570312 -14.125 25.65625 -15.648438 25.65625 -17.515625 C 25.65625 -19.410156 25.570312 -20.960938 25.40625 -22.171875 C 25.238281 -23.378906 24.96875 -24.359375 24.59375 -25.109375 C 24.15625 -26.066406 23.457031 -26.738281 22.5 -27.125 C 21.550781 -27.519531 20.039062 -27.71875 17.96875 -27.71875 C 15.882812 -27.71875 14.367188 -27.519531 13.421875 -27.125 C 12.472656 -26.738281 11.773438 -26.066406 11.328125 -25.109375 C 10.953125 -24.359375 10.679688 -23.378906 10.515625 -22.171875 C 10.347656 -20.960938 10.265625 -19.410156 10.265625 -17.515625 C 10.265625 -15.648438 10.347656 -14.125 10.515625 -12.9375 C 10.679688 -11.75 10.953125 -10.785156 11.328125 -10.046875 Z M 11.328125 -10.046875 "/></g></g></g><g fill="#865dff" fill-opacity="1"><g transform="translate(93.236038, 90.838247)"><g><path d="M 12 0 L -0.109375 -34.96875 L 9.53125 -34.96875 L 14.71875 -17.6875 C 15.0625 -16.53125 15.472656 -14.992188 15.953125 -13.078125 C 16.429688 -11.160156 16.894531 -9.253906 17.34375 -7.359375 C 18.164062 -10.742188 18.753906 -13.125 19.109375 -14.5 C 19.460938 -15.875 19.726562 -16.914062 19.90625 -17.625 L 25.046875 -34.96875 L 34.421875 -34.96875 L 22.375 0 Z M 12 0 "/></g></g></g><g fill="#865dff" fill-opacity="1"><g transform="translate(133.505316, 90.838247)"><g><path d="M 11.328125 -34.96875 L 11.328125 0 L 2.671875 0 L 2.671875 -34.96875 Z M 11.328125 -34.96875 "/></g></g></g><g fill="#865dff" fill-opacity="1"><g transform="translate(153.473054, 90.838247)"><g><path d="M 26.78125 -8.09375 L 26.78125 0 L 2.671875 0 L 2.671875 -34.96875 L 26.265625 -34.96875 L 26.265625 -27.171875 L 11.328125 -27.171875 L 11.328125 -21.359375 L 24.203125 -21.359375 L 24.203125 -14.109375 L 11.328125 -14.109375 L 11.328125 -8.09375 Z M 26.78125 -8.09375 "/></g></g></g><g fill="#865dff" fill-opacity="1"><g transform="translate(187.607244, 90.838247)"><g><path d="M 37.703125 -34.96875 L 37.703125 0 L 29.625 0 L 29.625 -20.96875 L 23.65625 -6.6875 L 16.625 -6.6875 L 10.765625 -20.96875 L 10.765625 0 L 2.671875 0 L 2.671875 -34.96875 L 13.21875 -34.96875 L 20.296875 -17.34375 L 27.5625 -34.96875 Z M 37.703125 -34.96875 "/></g></g></g><g fill="#865dff" fill-opacity="1"><g transform="translate(233.955833, 90.838247)"><g><path d="M 8.921875 0 L -0.171875 0 L 12.78125 -34.96875 L 21.75 -34.96875 L 34.359375 0 L 25.328125 0 L 23.484375 -5.859375 L 10.765625 -5.859375 Z M 17.0625 -26.390625 C 16.769531 -25.347656 16.445312 -24.238281 16.09375 -23.0625 C 15.738281 -21.894531 15.148438 -19.988281 14.328125 -17.34375 L 12.890625 -12.71875 L 21.3125 -12.71875 L 19.859375 -17.34375 C 19.378906 -18.757812 18.894531 -20.253906 18.40625 -21.828125 C 17.925781 -23.410156 17.476562 -24.929688 17.0625 -26.390625 Z M 17.0625 -26.390625 "/></g></g></g><g fill="#865dff" fill-opacity="1"><g transform="translate(274.225106, 90.838247)"><g><path d="M 32.859375 -34.96875 L 32.859375 0 L 24.59375 0 L 10.765625 -20.1875 L 10.765625 0 L 2.671875 0 L 2.671875 -34.96875 L 10.875 -34.96875 L 24.765625 -14 L 24.765625 -34.96875 Z M 32.859375 -34.96875 "/></g></g></g><g fill="#865dff" fill-opacity="1"><g transform="translate(315.721409, 90.838247)"><g><path d="M 11.328125 -34.96875 L 11.328125 0 L 2.671875 0 L 2.671875 -34.96875 Z M 11.328125 -34.96875 "/></g></g></g><g fill="#865dff" fill-opacity="1"><g transform="translate(335.689147, 90.838247)"><g><path d="M 8.921875 0 L -0.171875 0 L 12.78125 -34.96875 L 21.75 -34.96875 L 34.359375 0 L 25.328125 0 L 23.484375 -5.859375 L 10.765625 -5.859375 Z M 17.0625 -26.390625 C 16.769531 -25.347656 16.445312 -24.238281 16.09375 -23.0625 C 15.738281 -21.894531 15.148438 -19.988281 14.328125 -17.34375 L 12.890625 -12.71875 L 21.3125 -12.71875 L 19.859375 -17.34375 C 19.378906 -18.757812 18.894531 -20.253906 18.40625 -21.828125 C 17.925781 -23.410156 17.476562 -24.929688 17.0625 -26.390625 Z M 17.0625 -26.390625 "/></g></g></g></svg>